<?xml version="1.0" standalone="no"?>
<!DOCTYPE svg PUBLIC "-//W3C//DTD SVG 20010904//EN"
 "http://www.w3.org/TR/2001/REC-SVG-20010904/DTD/svg10.dtd">
<svg version="1.0" xmlns="http://www.w3.org/2000/svg"
 width="64.000000pt" height="64.000000pt" viewBox="0 0 64.000000 64.000000"
 preserveAspectRatio="xMidYMid meet">

<g transform="translate(0.000000,64.000000) scale(0.100000,-0.100000)"
fill="#000000" stroke="none">
<path d="M182 543 c-27 -23 -182 -213 -182 -223 0 -10 155 -200 182 -222 18
-16 44 -18 219 -18 186 0 200 1 219 20 19 19 20 33 20 220 0 187 -1 201 -20
220 -19 19 -33 20 -219 20 -175 0 -201 -2 -219 -17z m413 -223 l0 -195 -192
-3 -192 -2 -81 97 c-44 54 -80 100 -80 103 0 3 36 49 80 103 l81 97 192 -2
192 -3 0 -195z"/>
<path d="M254 419 c-3 -6 13 -31 37 -55 l43 -44 -42 -43 c-33 -34 -39 -46 -30
-55 9 -9 21 -3 55 30 l43 42 43 -42 c34 -33 46 -39 55 -30 9 9 3 21 -30 55
l-42 43 44 45 c34 35 41 48 32 57 -9 9 -22 2 -57 -32 l-45 -44 -43 42 c-46 45
-52 48 -63 31z"/>
</g>
</svg>
